HIERARCHY
ROOT Hips
{
  OFFSET -242.653 98.7439 237.796
  CHANNELS 6 Xposition Yposition Zposition Zrotation Xrotation Yrotation
  JOINT ToSpine
  {
    OFFSET -2.69724 7.43032 -0.144315
    CHANNELS 3 Zrotation Xrotation Yrotation
    JOINT Spine
    {
      OFFSET -0.0310711 10.7595 1.96963
      CHANNELS 3 Zrotation Xrotation Yrotation
      JOINT Spine1
      {
        OFFSET 19.9056 3.91189 0.764692
        CHANNELS 3 Zrotation Xrotation Yrotation
        JOINT Neck
        {
          OFFSET 25.9749 7.03908 -0.130764
          CHANNELS 3 Zrotation Xrotation Yrotation
          JOINT Head
          {
            OFFSET 9.52751 0.295786 -0.907742
            CHANNELS 3 Zrotation Xrotation Yrotation
            End Site
            {
              OFFSET 16.4037 0.713936 2.7358
            }
          }
        }
        JOINT LeftShoulder
        {
          OFFSET 17.7449 4.33886 11.7777
          CHANNELS 3 Zrotation Xrotation Yrotation
          JOINT LeftArm
          {
            OFFSET 0.911315 1.27913 9.80584
            CHANNELS 3 Zrotation Xrotation Yrotation
            JOINT LeftForeArm
            {
              OFFSET 28.6126 1.18197 -3.53199
              CHANNELS 3 Zrotation Xrotation Yrotation
              JOINT LeftHand
              {
                OFFSET 27.5088 0.0218783 0.327423
                CHANNELS 3 Zrotation Xrotation Yrotation
                End Site
                {
                  OFFSET 18.6038 -0.000155887 0.382096
                }
              }
            }
          }
        }
        JOINT RightShoulder
        {
          OFFSET 17.1009 2.89543 -12.2328
          CHANNELS 3 Zrotation Xrotation Yrotation
          JOINT RightArm
          {
            OFFSET 1.4228 0.178766 -10.211
            CHANNELS 3 Zrotation Xrotation Yrotation
            JOINT RightForeArm
            {
              OFFSET 28.733 1.87905 2.64907
              CHANNELS 3 Zrotation Xrotation Yrotation
              JOINT RightHand
              {
                OFFSET 27.4588 0.290562 -0.101845
                CHANNELS 3 Zrotation Xrotation Yrotation
                End Site
                {
                  OFFSET 17.8396 -0.255518 -0.000602873
                }
              }
            }
          }
        }
      }
    }
  }
  JOINT LeftUpLeg
  {
    OFFSET -5.61296 -2.22332 -10.2353
    CHANNELS 3 Zrotation Xrotation Yrotation
    JOINT LeftLeg
    {
      OFFSET 2.56703 -44.7417 -7.93097
      CHANNELS 3 Zrotation Xrotation Yrotation
      JOINT LeftFoot
      {
        OFFSET 3.16933 -46.5642 -3.96578
        CHANNELS 3 Zrotation Xrotation Yrotation
        JOINT LeftToeBase
        {
          OFFSET 0.346054 -6.02161 12.8035
          CHANNELS 3 Zrotation Xrotation Yrotation
          End Site
          {
            OFFSET 0.134235 -1.35082 5.13018
          }
        }
      }
    }
  }
  JOINT RightUpLeg
  {
    OFFSET -5.7928 -1.72406 10.6446
    CHANNELS 3 Zrotation Xrotation Yrotation
    JOINT RightLeg
    {
      OFFSET -2.57161 -44.7178 -7.85259
      CHANNELS 3 Zrotation Xrotation Yrotation
      JOINT RightFoot
      {
        OFFSET -3.10148 -46.5936 -4.03391
        CHANNELS 3 Zrotation Xrotation Yrotation
        JOINT RightToeBase
        {
          OFFSET -0.0828122 -6.13587 12.8035
          CHANNELS 3 Zrotation Xrotation Yrotation
          End Site
          {
            OFFSET -0.131328 -1.35082 5.13018
          }
        }
      }
    }
  }
}
MOTION
Frames:	20
Frame Time:	0.0333333
87.7151 103.839 -89.6313 75.8156 49.7794 8.69253 -70.1915 0 88.8779 81.5851 70.2007 0.308818 7.53446 18.7612 2.47432 -141.713 19.3255 173.222 -149.751 56.4423 167.653 2.27874 -0.698537 -24.3639 -79.7891 55.0834 -125.256 1.44952 45.9649 -10.3186 9.83255 -0.535603 -4.4024 0.51117 -2.17816 29.4806 -99.6222 -53.3965 68.6152 4.15676 -19.6829 15.4169 4.16829 -0.0769515 -2.86371 -70.2072 -5.90701 100.325 1.52755 25.2992 -17.9186 8.05745 5.85376 -1.06973 -7.24856 -29.2397 10.6094 -43.0164 -6.04079 82.7212 2.54291 12.5956 -4.81187 -5.36573 -5.72163 0.961889 1.47242 15.108 -12.7067 
89.8822 103.27 -91.5574 74.9879 50.044 9.04061 -70.1915 0 88.8779 81.7828 70.2135 0.351845 7.36996 18.7426 2.66962 -142.283 19.7391 173.649 -149.123 56.7618 167.87 2.325 -0.599546 -24.7568 -78.0816 54.8095 -126.011 1.88354 44.3472 -11.1989 8.91257 -0.421736 -3.60895 0.518345 -2.22046 29.5033 -99.9857 -52.8177 68.491 3.97733 -20.1087 15.0224 3.93164 -0.0599593 -2.45438 -70.5997 -6.27047 99.8118 2.14256 26.9068 -18.2454 8.34288 5.8962 -1.11835 -7.7788 -32.0858 10.3962 -41.4758 -7.12825 82.5124 2.87673 14.5941 -5.08625 -5.44669 -7.03862 0.999596 1.09242 17.6242 -13.0026 
92.5138 102.585 -93.6672 75.1665 50.1237 8.83991 -70.1915 0 88.8779 82.9418 70.2075 -0.482613 7.65172 18.6423 2.66069 -143.357 19.9805 174.106 -148.769 56.9604 168.304 2.3209 -0.752029 -24.9479 -80.3232 55.9421 -122.931 1.7807 46.8857 -10.4996 10.2963 -0.637771 -5.22933 0.474912 -1.96543 29.3315 -100.86 -52.3052 68.617 3.87675 -21.2842 14.4208 3.51951 -0.0524295 -2.45469 -71.4581 -5.82656 99.671 2.37692 29.545 -19.0389 8.42976 4.8706 -1.13225 -8.07537 -33.9588 11.052 -40.5818 -7.63272 81.4449 2.99893 19.5786 -2.34458 -5.54942 -5.41077 0.967938 0.646274 20.3046 -13.2056 
95.08 102.335 -95.8263 75.1664 50.8545 9.1991 -70.1915 0 88.8779 83.5399 69.7453 -0.385401 8.61946 18.0979 2.52704 -144.723 19.5904 174.862 -148.803 56.4845 168.609 2.34644 -0.759306 -25.2635 -82.4288 56.6781 -119.657 0.617051 47.266 -9.06553 10.3076 -0.662205 -5.48343 0.4478 -1.79436 29.3584 -100.248 -52.0349 69.9775 3.72919 -21.203 14.308 3.72911 -0.0581957 -2.55406 -72.9005 -5.91035 97.4132 2.8193 30.912 -18.9487 7.14229 4.27237 -0.92976 -8.08867 -34.4002 11.8111 -39.9165 -8.41572 78.78 2.48927 24.4493 -1.41696 -4.7587 -4.23862 0.873415 -1.56953 25.1384 -10.9689 
97.7018 102.571 -97.8024 75.0676 51.7189 10.8154 -70.1915 0 88.8779 85.655 69.2336 -0.678263 9.23821 17.5076 2.97724 -145.109 20.1563 175.314 -149.212 57.1616 169.13 2.37173 -1.01224 -25.9948 -84.5915 57.192 -116.253 -3.13865 48.8018 -4.19012 11.9694 -0.740044 -5.22586 0.494472 -2.08991 29.3035 -99.4342 -51.7088 71.186 3.44219 -20.1317 14.3317 4.11497 -0.0646153 -2.49713 -74.3248 -5.43948 91.2942 1.71449 32.1776 -14.3373 6.98616 4.74476 -0.89988 -8.10142 -35.0005 12.7862 -41.0275 -7.5033 78.3538 2.61133 25.4215 -1.6622 -3.87004 -0.669188 0.663579 -1.05103 23.5327 -11.2818 
100.378 102.771 -99.814 74.2805 51.5855 12.7055 -70.1915 0 88.8779 86.0907 69.1282 1.08551 9.58659 17.4725 3.30527 -145.166 20.4134 175.793 -148.296 57.183 168.434 2.4036 -0.802 -26.0157 -89.0204 59.1138 -111.676 -9.13166 51.5167 4.82697 10.5946 -0.739812 -6.10171 0.483897 -2.08421 28.5983 -99.1525 -52.0232 71.2176 4.04999 -19.4448 15.269 4.0901 -0.060034 -2.36103 -73.9736 -5.28634 83.0214 -1.89764 35.8213 -5.84297 5.69995 5.35568 -0.67923 -8.1043 -35.2196 13.1303 -41.6126 -6.34995 77.2202 2.56907 27.0766 -2.4086 -4.01274 -0.788031 0.684452 -3.84777 27.9176 -8.06737 
102.74 102.685 -101.507 74.3323 51.1066 14.3489 -70.1915 0 88.8779 89.8246 69.0158 0.104064 9.64751 17.667 3.65259 -145.302 20.9738 176.418 -148.99 57.9069 169.259 2.43211 -0.736647 -26.2424 -93.8796 60.2406 -106.136 -14.6304 53.9279 12.7302 9.73798 -0.464764 -3.65794 0.445104 -1.83184 28.5973 -97.8975 -51.9124 72.3101 4.58413 -19.5904 15.9514 4.25358 -0.0794786 -2.8846 -70.9073 -2.62799 84.453 -2.6131 43.9883 -6.54873 3.68023 4.6308 -0.372155 -7.82867 -33.1977 12.4763 -41.7976 -4.84197 75.7367 2.77472 29.9254 -2.29442 -4.47461 -2.05873 0.778595 -4.35205 29.206 -7.72581 
104.957 102.475 -103.183 74.6885 50.3753 15.3402 -70.1915 0 88.8779 93.9085 69.0432 -1.61776 9.54187 18.1281 3.67282 -145.367 21.4096 176.364 -149.328 58.4978 169.89 2.47231 -0.579949 -26.4454 -101.167 60.6477 -98.3688 -14.0785 57.3093 13.8625 7.07228 -0.327675 -3.4867 0.399709 -1.55084 28.3485 -95.8813 -52.0085 74.6566 4.34731 -18.8548 16.0856 4.70111 -0.0890293 -2.87559 -66.2478 0.445093 87.1409 -3.82192 54.0749 -5.45226 1.22542 3.69434 -0.0354068 -6.68896 -26.0648 10.249 -41.9083 -3.20491 75.4875 2.91655 32.8216 -2.44431 -5.00795 -4.01533 0.88843 -4.32052 30.0631 -8.11837 
107.072 102.255 -104.749 74.4415 50.3023 17.102 -70.1915 0 88.8779 96.6214 68.8684 -2.1622 9.63117 18.33 3.82457 -145.526 21.1963 175.668 -147.867 58.0653 168.99 2.35262 -1.09014 -25.8969 -108.588 60.8879 -90.1453 -12.8894 59.0579 14.5521 5.17629 -0.233653 -3.3311 0.392206 -1.51809 28.0534 -93.4092 -52.263 77.692 4.33721 -18.1378 16.4783 5.06783 -0.100503 -2.96353 -60.6731 3.1984 87.7895 -5.46962 62.9149 -2.02372 2.31532 7.11854 -0.026025 -6.06632 -22.552 10.0212 -42.3544 -2.11219 74.6712 3.83521 34.9182 -3.02686 -5.09326 -5.25327 0.92946 -3.40321 29.0983 -9.29354 
109.081 102.067 -106.264 74.2081 50.8992 19.2087 -70.1915 0 88.8779 99.8825 68.5133 -3.43236 9.69306 18.1467 4.63117 -146.144 21.9101 175.38 -148.509 59.0675 169.93 2.3956 -1.23597 -26.6935 -112.234 59.9074 -86.2312 -12.9197 61.4442 15.6249 4.40658 -0.168068 -2.56946 0.411695 -1.68056 27.5879 -89.2146 -51.8071 82.4918 4.17178 -16.7027 16.9954 4.83263 -0.0775535 -2.48459 -54.928 4.94626 86.2788 -7.72495 70.1931 3.2424 3.04089 8.32713 -0.103426 -6.83092 -27.0625 13.0555 -43.4054 -0.633155 74.527 5.01306 36.1495 -4.95114 -5.19724 -6.71562 0.975916 -1.96918 27.1138 -11.0154 
110.85 102.046 -107.788 74.8391 51.1671 19.6318 -70.1915 0 88.8779 104.03 68.5332 -5.95363 9.75503 18.5578 4.32932 -146.86 22.0224 174.877 -147.41 59.0476 169.324 2.37635 -1.49464 -26.943 -116.076 59.2212 -82.9977 -11.2517 61.0978 15.4458 2.06517 -0.0356838 -0.439409 0.438085 -1.83233 27.9766 -86.3137 -50.8624 86.4086 4.49096 -15.3434 17.8622 5.78975 -0.103299 -2.66127 -50.0875 5.74185 85.7887 -9.51794 74.2175 8.06021 3.53538 9.21751 -0.16201 -7.19897 -28.9789 10.7005 -44.967 0.290624 74.6354 5.7808 36.9071 -6.3396 -4.96149 -8.62937 1.01557 -2.18702 27.0354 -10.6037 
112.75 102.325 -109.405 75.4024 51.4298 19.1827 -70.1915 0 88.8779 105.608 68.5994 -7.6831 9.75754 18.6871 4.85132 -146.744 22.2959 174.288 -147.028 59.3985 169.666 2.3947 -1.28152 -26.7676 -115.128 58.6775 -82.0643 -11.3516 59.8055 14.8632 0.503422 0.00894551 1.64484 0.36824 -1.35864 28.0198 -84.817 -50.1153 89.0167 4.73869 -13.6115 18.6904 6.0434 -0.106736 -2.62605 -46.3965 5.44586 85.7387 -10.6596 75.1286 7.88262 3.66281 7.98429 -0.236244 -7.02611 -28.1921 12.0811 -46.799 0.661575 75.0754 6.14077 37.1937 -7.6108 -4.19953 -10.718 1.05408 -2.66959 27.9391 -10.1084 
114.655 102.712 -111.149 75.1585 50.8375 19.1094 -70.1915 0 88.8779 105.681 69.442 -7.49008 9.56285 19.3422 5.29403 -147.156 22.8717 174.732 -147.777 60.2002 170.838 2.37542 -1.46298 -26.8697 -114.765 58.1547 -80.852 -11.8305 59.8739 14.8958 0.249738 0.00930651 1.68224 0.352735 -1.2921 27.1668 -83.0936 -50.0773 91.4169 5.3644 -11.9669 19.9879 6.96548 -0.126403 -2.65104 -43.0565 5.23569 86.4245 -9.5752 73.1395 4.73131 3.57323 6.55273 -0.277193 -6.80235 -26.8664 12.9579 -48.4082 1.41062 75.7651 5.89887 36.4632 -7.47644 -4.76575 -12.6402 1.12914 -2.92391 28.4166 -9.85214 
116.305 103.102 -112.84 74.5672 49.8307 18.9497 -70.1915 0 88.8779 105.514 70.4266 -6.86575 9.26253 20.1823 4.90078 -147.737 23.1652 174.726 -146.918 60.3642 170.278 2.38704 -1.42167 -26.9381 -112.967 57.7041 -80.8653 -12.4113 58.9964 14.5269 0.879568 0.0112504 1.8874 0.371199 -1.43933 26.8782 -80.8705 -49.7113 94.2234 5.51077 -8.66397 21.685 7.52815 -0.141284 -2.71062 -40.3476 4.52748 87.2642 -7.12786 68.3977 0.877236 4.00049 5.14517 -0.404474 -6.84816 -27.357 14.7911 -49.6563 1.28287 75.6028 5.91109 35.7797 -5.91915 -5.10374 -13.4821 1.15636 -3.11081 28.6866 -9.63478 
117.879 103.508 -114.356 73.6147 48.9833 19.3294 -70.1915 0 88.8779 105.511 71.1769 -6.49867 8.51939 20.6485 4.85733 -148.649 23.4712 175.474 -148.435 60.982 171.929 2.42051 -1.32534 -27.1755 -112.021 56.9755 -80.211 -11.9842 56.2079 13.4831 2.06088 -0.0117034 0.705806 0.345169 -1.26458 26.5844 -78.749 -49.0082 96.5913 5.73725 -6.81166 23.4501 8.04255 -0.114545 -2.13481 -38.4507 3.9641 87.6224 -4.61723 60.9514 -1.40888 3.89023 5.71981 -0.364614 -6.99534 -28.534 15.2153 -50.7532 1.58182 75.7208 5.74491 34.5772 -5.08363 -5.05139 -13.9551 1.16961 -2.88509 28.4382 -9.92716 
119.356 103.766 -115.889 73.0791 48.0022 19.4707 -70.1915 0 88.8779 105.836 71.7976 -6.39278 8.08654 21.075 4.58654 -149.779 23.5767 176.017 -149.626 61.3234 173.277 2.43195 -1.27133 -27.2148 -110.425 56.6484 -80.3197 -12.1313 54.2676 12.8587 2.64541 -0.038426 -0.123277 0.334586 -1.18422 26.6418 -79.0972 -48.2905 97.5029 6.62812 -7.88245 25.1192 7.71724 -0.115442 -2.2309 -37.5201 3.51383 87.4211 -2.94652 52.0924 -2.40408 3.77985 5.86032 -0.340472 -6.79096 -27.1345 16.8213 -51.7607 1.82939 75.7655 5.61137 33.883 -4.32956 -5.21081 -15.0001 1.19779 -3.72106 29.426 -8.8803 
120.745 104.46 -117.23 72.6167 46.8553 19.1188 -70.1915 0 88.8779 104.607 72.5415 -5.52556 8.4013 21.5744 4.09566 -150.414 23.5045 174.97 -145.063 60.3724 169.025 2.43042 -1.22292 -27.1028 -109.22 56.9056 -80.6612 -12.1799 52.6361 12.3877 3.70061 -0.0619484 -0.3082 0.287998 -0.850337 26.2206 -78.0668 -47.742 99.6961 6.80104 -7.93638 26.0536 7.62009 -0.106068 -2.10359 -38.2418 3.25173 87.5069 -1.89278 40.7745 -3.47201 3.29835 5.7778 -0.261826 -6.38457 -23.3887 17.402 -53.4389 1.9396 76.1551 5.55255 31.5448 -2.95726 -5.55231 -14.141 1.17373 -3.01081 27.7824 -9.45726 
122.158 105.096 -118.504 72.6147 45.5422 18.5227 -70.1915 0 88.8779 103.906 73.0663 -5.50079 8.51132 21.9768 3.82868 -149.92 23.0916 174.803 -144.575 60.0367 170.39 2.38219 -1.35441 -26.7477 -108.931 57.4642 -80.3052 -12.0552 51.4059 12.0626 4.4468 -0.0698458 -0.180036 0.239473 -0.485119 26.481 -76.7941 -46.589 102.076 6.87112 -8.01467 26.2603 8.37476 -0.094747 -1.76626 -40.4857 3.06828 86.5996 -1.16651 28.4597 -3.11496 3.30551 7.15856 -0.204039 -5.97606 -19.2966 17.6215 -55.298 2.77847 77.0656 4.74399 29.0712 -1.72002 -5.40989 -13.273 1.1522 -2.41511 26.6448 -10.0525 
123.608 105.532 -119.801 72.7353 44.6804 18.3993 -70.1915 0 88.8779 103.238 73.2724 -5.34007 8.73716 22.0601 3.87402 -150.226 23.0233 175.214 -145.575 60.1315 171.065 2.41243 -1.2548 -26.9391 -109.732 57.4199 -79.8732 -12.0223 52.2905 12.3007 4.7382 -0.15113 -1.90621 0.211423 -0.27477 26.3614 -74.5666 -45.6419 105.225 6.59098 -7.55908 25.9015 8.17864 -0.0784204 -1.55556 -42.3245 3.81887 92.8649 1.98725 18.465 -12.5097 1.80666 9.37537 0.191444 -5.57909 -14.1516 18.5984 -57.2708 3.46482 77.4113 4.64314 27.0327 -0.762263 -5.81218 -12.4205 1.13608 -1.581 24.8829 -10.8486 
125.19 105.562 -121.296 73.0113 44.2633 18.8334 -70.1915 0 88.8779 102.681 73.0235 -5.15465 8.83788 21.6883 4.14029 -150.068 22.694 174.934 -145.468 59.6998 170.416 2.40738 -1.16899 -26.7154 -110.355 57.7304 -79.9329 -11.814 52.7303 12.4161 3.79294 -0.132722 -2.22769 0.172125 0.00322565 26.7939 -73.1176 -44.6502 107.83 6.65918 -7.90963 25.298 7.4435 -0.094984 -1.96281 -43.0766 5.03493 94.8745 1.43665 13.5807 -13.7534 0.786632 7.88376 0.300856 -4.89003 -9.73343 16.5116 -59.0996 4.80837 77.8681 4.27588 25.9826 -0.425969 -6.05762 -11.8142 1.12763 0.173771 21.5034 -12.7707 
